<svg width="426" height="68" viewBox="0 0 426 68" fill="none" xmlns="http://www.w3.org/2000/svg">
<path id="Gangsterbnb" d="M27.36 70.72C22.368 70.72 17.952 69.568 14.112 67.264C10.32 64.96 7.368 61.768 5.256 57.688C3.192 53.56 2.16 48.832 2.16 43.504C2.16 38.032 3.264 33.208 5.472 29.032C7.68 24.856 10.752 21.616 14.688 19.312C18.672 17.008 23.208 15.856 28.296 15.856C32.424 15.856 36.096 16.624 39.312 18.16C42.576 19.648 45.192 21.592 47.16 23.992C49.176 26.392 50.496 28.936 51.12 31.624C51.264 32.2 51.336 32.656 51.336 32.992C51.336 33.424 51.24 33.712 51.048 33.856C50.856 34 50.544 34.096 50.112 34.144L37.8 36.016C37.272 36.016 36.936 35.92 36.792 35.728C36.648 35.536 36.504 35.152 36.36 34.576C35.976 32.368 35.064 30.568 33.624 29.176C32.232 27.736 30.336 27.016 27.936 27.016C25.104 27.016 22.944 28.24 21.456 30.688C20.016 33.088 19.296 37.216 19.296 43.072C19.296 49.216 20.088 53.488 21.672 55.888C23.256 58.288 25.536 59.488 28.512 59.488C32.4 59.488 34.992 57.808 36.288 54.448L36.504 53.8L36.648 53.224C36.648 52.792 36.384 52.576 35.856 52.576H29.088C28.56 52.576 28.176 52.456 27.936 52.216C27.744 51.976 27.648 51.568 27.648 50.992V44.08C27.648 43.264 28.152 42.856 29.16 42.856L49.32 43C50.184 43 50.856 43.216 51.336 43.648C51.816 44.032 52.056 44.56 52.056 45.232V68.776C52.056 69.112 51.936 69.4 51.696 69.64C51.456 69.88 51.168 70 50.832 70H48.096C47.232 70 46.464 69.544 45.792 68.632L42.912 64.456C42.864 64.312 42.768 64.24 42.624 64.24C42.528 64.24 42.36 64.36 42.12 64.6C40.872 65.8 39.672 66.808 38.52 67.624C37.416 68.44 35.928 69.16 34.056 69.784C32.184 70.408 29.952 70.72 27.36 70.72ZM74.4294 66.976C71.4534 69.472 67.9734 70.72 63.9894 70.72C60.4854 70.72 57.6774 69.736 55.5654 67.768C53.5014 65.8 52.4694 63.28 52.4694 60.208C52.4694 57.424 53.3574 54.976 55.1334 52.864C56.9574 50.704 59.5254 49.048 62.8374 47.896C66.1974 46.696 70.1094 46.096 74.5734 46.096H75.0774C75.7974 46.096 76.1574 45.76 76.1574 45.088V43.864C76.1574 41.08 74.7414 39.688 71.9094 39.688C70.7574 39.688 69.6774 39.952 68.6694 40.48C67.6614 41.008 66.8694 41.872 66.2934 43.072C66.1494 43.408 65.9814 43.648 65.7894 43.792C65.6454 43.888 65.4294 43.936 65.1414 43.936C64.8054 43.936 64.5414 43.912 64.3494 43.864L54.9174 41.992C54.3894 41.896 54.1254 41.584 54.1254 41.056C54.1254 40.72 54.2214 40.264 54.4134 39.688C56.4294 33.976 62.4774 31.12 72.5574 31.12C78.8454 31.12 83.2854 32.152 85.8774 34.216C88.5174 36.28 89.8374 39.208 89.8374 43V68.056C89.8374 68.776 89.7174 69.28 89.4774 69.568C89.2854 69.856 88.8534 70 88.1814 70H78.3174C77.7414 70 77.3094 69.784 77.0214 69.352C76.7814 68.92 76.5894 68.296 76.4454 67.48L76.3734 66.976C76.3254 66.496 76.1334 66.256 75.7974 66.256C75.4134 66.256 74.9574 66.496 74.4294 66.976ZM76.1574 53.872C76.1574 53.392 76.0854 53.056 75.9414 52.864C75.7974 52.672 75.5094 52.576 75.0774 52.576H74.7894C73.8774 52.576 72.7494 52.792 71.4054 53.224C70.1094 53.656 68.9574 54.304 67.9494 55.168C66.9414 55.984 66.4374 57.016 66.4374 58.264C66.4374 59.272 66.7974 60.088 67.5174 60.712C68.2374 61.336 69.2454 61.648 70.5414 61.648C72.0774 61.648 73.3974 61.192 74.5014 60.28C75.6054 59.368 76.1574 58.504 76.1574 57.688V53.872ZM93.6709 70C92.9989 70 92.5189 69.88 92.2309 69.64C91.9429 69.352 91.7989 68.872 91.7989 68.2V33.496C91.7989 32.968 91.9189 32.56 92.1589 32.272C92.3989 31.984 92.7349 31.84 93.1669 31.84H104.759C105.623 31.84 106.055 32.32 106.055 33.28V36.52C106.055 36.904 106.175 37.096 106.415 37.096C106.607 37.096 106.799 37 106.991 36.808C108.575 35.032 110.351 33.64 112.319 32.632C114.287 31.624 116.327 31.12 118.439 31.12C121.799 31.12 124.511 32.176 126.575 34.288C128.687 36.4 129.743 39.232 129.743 42.784V67.84C129.743 69.28 129.023 70 127.583 70H116.999C116.375 70 115.943 69.88 115.703 69.64C115.463 69.352 115.343 68.872 115.343 68.2V44.728C115.343 43.672 114.983 42.832 114.263 42.208C113.591 41.584 112.679 41.272 111.527 41.272C109.319 41.272 107.543 42.472 106.199 44.872V67.912C106.199 68.68 106.007 69.232 105.623 69.568C105.287 69.856 104.687 70 103.823 70H93.6709ZM172.98 29.536C173.94 29.536 174.42 30.136 174.42 31.336V37.816C174.42 39.112 173.988 39.76 173.124 39.76C172.884 39.76 172.692 39.736 172.548 39.688C171.444 39.352 170.388 39.184 169.38 39.184C168.372 39.184 167.868 39.544 167.868 40.264C167.868 40.504 167.892 40.696 167.94 40.84C168.18 41.656 168.3 42.4 168.3 43.072C168.3 45.28 167.58 47.296 166.14 49.12C164.7 50.896 162.588 52.312 159.804 53.368C157.02 54.424 153.684 54.952 149.796 54.952C145.332 54.952 143.1 55.6 143.1 56.896C143.1 57.424 143.34 57.784 143.82 57.976C144.348 58.168 145.164 58.312 146.268 58.408L157.212 59.056C162.396 59.392 166.26 60.496 168.804 62.368C171.348 64.24 172.62 66.712 172.62 69.784C172.62 72.28 171.78 74.488 170.1 76.408C168.468 78.328 166.02 79.84 162.756 80.944C159.492 82.048 155.508 82.6 150.804 82.6C143.22 82.6 137.58 81.88 133.884 80.44C130.236 79.048 128.412 76.84 128.412 73.816C128.412 72.328 129.012 71.128 130.212 70.216C131.46 69.352 133.188 68.608 135.396 67.984C135.732 67.936 135.9 67.816 135.9 67.624C135.9 67.48 135.732 67.336 135.396 67.192C132.228 65.656 130.644 63.664 130.644 61.216C130.644 58.48 133.26 56.008 138.492 53.8C138.78 53.656 138.972 53.536 139.068 53.44C139.164 53.296 139.044 53.128 138.708 52.936C136.308 51.928 134.46 50.584 133.164 48.904C131.868 47.224 131.22 45.304 131.22 43.144C131.22 39.544 132.9 36.664 136.26 34.504C139.62 32.344 144.42 31.264 150.66 31.264C153.3 31.264 155.652 31.576 157.716 32.2C159.78 32.776 161.436 33.544 162.684 34.504C162.924 34.744 163.284 34.864 163.764 34.864C164.292 34.864 164.676 34.672 164.916 34.288C165.828 32.992 167.124 31.888 168.804 30.976C170.484 30.016 171.876 29.536 172.98 29.536ZM149.652 48.4C151.524 48.4 152.916 47.92 153.828 46.96C154.788 45.952 155.268 44.752 155.268 43.36C155.268 41.776 154.812 40.48 153.9 39.472C152.988 38.464 151.572 37.96 149.652 37.96C147.924 37.96 146.556 38.488 145.548 39.544C144.54 40.552 144.036 41.824 144.036 43.36C144.036 44.752 144.54 45.952 145.548 46.96C146.556 47.92 147.924 48.4 149.652 48.4ZM144.972 69.424C143.484 69.376 142.284 69.592 141.372 70.072C140.46 70.552 140.004 71.176 140.004 71.944C140.004 73.384 140.844 74.44 142.524 75.112C144.252 75.832 147.252 76.192 151.524 76.192C154.26 76.192 156.372 75.856 157.86 75.184C159.396 74.512 160.164 73.624 160.164 72.52C160.164 71.8 159.732 71.176 158.868 70.648C158.052 70.168 156.9 69.904 155.412 69.856L144.972 69.424ZM198.995 42.784C197.075 40.576 194.675 39.472 191.795 39.472C190.499 39.472 189.395 39.712 188.483 40.192C187.619 40.624 187.187 41.224 187.187 41.992C187.187 42.376 187.379 42.736 187.763 43.072C188.147 43.36 188.915 43.624 190.067 43.864L197.699 45.448C201.923 46.312 204.995 47.848 206.915 50.056C208.835 52.216 209.795 54.784 209.795 57.76C209.795 61.84 208.139 65.032 204.827 67.336C201.515 69.592 197.099 70.72 191.579 70.72C187.163 70.72 183.371 70 180.203 68.56C177.083 67.072 174.899 65.176 173.651 62.872C173.411 62.392 173.291 61.984 173.291 61.648C173.291 61.264 173.459 60.976 173.795 60.784L180.059 57.616C180.491 57.376 180.899 57.256 181.283 57.256C181.619 57.256 181.955 57.424 182.291 57.76C183.059 58.624 183.755 59.32 184.379 59.848C185.003 60.376 185.867 60.856 186.971 61.288C188.075 61.672 189.467 61.864 191.147 61.864C192.923 61.864 194.339 61.648 195.395 61.216C196.499 60.784 197.051 60.136 197.051 59.272C197.051 58.744 196.811 58.312 196.331 57.976C195.851 57.592 194.987 57.28 193.739 57.04L186.395 55.744C182.603 55.072 179.699 53.776 177.683 51.856C175.667 49.936 174.659 47.368 174.659 44.152C174.659 41.656 175.331 39.424 176.675 37.456C178.019 35.488 179.987 33.952 182.579 32.848C185.219 31.696 188.339 31.12 191.939 31.12C195.635 31.12 198.899 31.792 201.731 33.136C204.611 34.48 206.603 36.112 207.707 38.032C208.091 38.608 208.283 39.064 208.283 39.4C208.283 39.736 208.091 40 207.707 40.192L201.083 43.36C200.795 43.504 200.555 43.576 200.363 43.576C199.979 43.576 199.523 43.312 198.995 42.784ZM230.388 41.56C229.764 41.56 229.452 41.872 229.452 42.496V56.32C229.452 57.616 229.86 58.576 230.676 59.2C231.492 59.824 232.764 60.136 234.492 60.136H237.588C237.972 60.136 238.284 60.28 238.524 60.568C238.764 60.856 238.884 61.192 238.884 61.576L238.812 67.336C238.812 68.488 238.116 69.208 236.724 69.496C234.276 69.832 231.036 70 227.004 70C223.452 70 220.572 69.16 218.364 67.48C216.156 65.8 215.052 63.448 215.052 60.424V42.856C215.052 42.376 214.98 42.04 214.836 41.848C214.692 41.656 214.404 41.56 213.972 41.56H210.516C209.364 41.56 208.788 41.032 208.788 39.976V33.208C208.788 32.296 209.316 31.84 210.372 31.84H214.62C215.148 31.84 215.436 31.552 215.484 30.976L216.636 20.32C216.732 19.36 217.164 18.88 217.932 18.88H228.516C228.9 18.88 229.212 19.024 229.452 19.312C229.74 19.6 229.884 19.984 229.884 20.464V30.976C229.884 31.504 230.148 31.768 230.676 31.768H237.3C238.356 31.768 238.884 32.224 238.884 33.136V39.976C238.884 40.456 238.716 40.84 238.38 41.128C238.092 41.416 237.66 41.56 237.084 41.56H230.388ZM252.088 54.736C252.088 56.848 252.76 58.456 254.104 59.56C255.496 60.664 257.296 61.216 259.504 61.216C260.8 61.216 262.048 60.928 263.248 60.352C264.448 59.728 265.816 58.672 267.352 57.184C267.544 56.992 267.736 56.896 267.928 56.896C268.12 56.896 268.432 56.968 268.864 57.112L275.416 59.776C275.848 59.92 276.064 60.208 276.064 60.64C276.064 60.928 275.944 61.216 275.704 61.504C273.208 65.008 270.592 67.432 267.856 68.776C265.168 70.072 261.736 70.72 257.56 70.72C253.768 70.72 250.312 69.904 247.192 68.272C244.12 66.64 241.696 64.384 239.92 61.504C238.144 58.576 237.256 55.264 237.256 51.568C237.256 47.584 238.168 44.056 239.992 40.984C241.816 37.864 244.264 35.44 247.336 33.712C250.408 31.984 253.72 31.12 257.272 31.12C261.064 31.12 264.424 31.936 267.352 33.568C270.328 35.2 272.656 37.576 274.336 40.696C276.016 43.768 276.856 47.44 276.856 51.712C276.856 52.384 276.784 52.84 276.64 53.08C276.496 53.32 276.136 53.464 275.56 53.512H253.168C252.448 53.512 252.088 53.92 252.088 54.736ZM261.664 46.096C262.144 46.096 262.456 46.048 262.6 45.952C262.792 45.808 262.888 45.52 262.888 45.088C262.888 43.888 262.456 42.664 261.592 41.416C260.728 40.168 259.504 39.544 257.92 39.544C256.336 39.544 254.992 40.096 253.888 41.2C252.784 42.304 252.256 43.912 252.304 46.024L261.664 46.096ZM279.437 70C278.717 70 278.213 69.856 277.925 69.568C277.685 69.28 277.565 68.824 277.565 68.2V33.496C277.565 32.392 278.021 31.84 278.933 31.84H290.165C290.549 31.84 290.861 31.984 291.101 32.272C291.341 32.512 291.461 32.848 291.461 33.28V37.312C291.461 37.744 291.629 37.96 291.965 37.96C292.205 37.96 292.445 37.816 292.685 37.528C293.837 35.752 295.445 34.24 297.509 32.992C299.573 31.744 301.445 31.12 303.125 31.12C304.901 31.12 305.789 31.6 305.789 32.56V43.504C305.789 43.984 305.645 44.32 305.357 44.512C305.117 44.704 304.781 44.752 304.349 44.656C302.285 44.128 300.221 43.864 298.157 43.864C296.573 43.864 295.133 44.368 293.837 45.376C292.589 46.384 291.965 47.512 291.965 48.76V67.912C291.965 68.68 291.773 69.232 291.389 69.568C291.005 69.856 290.405 70 289.589 70H279.437ZM308.604 70C307.884 70 307.38 69.856 307.092 69.568C306.804 69.28 306.66 68.824 306.66 68.2V18.232C306.66 17.704 306.78 17.296 307.02 17.008C307.26 16.72 307.596 16.576 308.028 16.576H319.764C320.628 16.576 321.06 17.08 321.06 18.088V34.288C321.06 34.912 321.252 35.224 321.636 35.224C321.828 35.224 322.092 35.104 322.428 34.864C323.82 33.52 325.26 32.56 326.748 31.984C328.236 31.408 329.844 31.12 331.572 31.12C336.228 31.12 339.852 32.872 342.444 36.376C345.084 39.832 346.404 44.584 346.404 50.632C346.404 56.824 344.964 61.72 342.084 65.32C339.252 68.92 335.244 70.72 330.06 70.72C327.852 70.72 325.788 70.192 323.868 69.136C321.948 68.08 320.268 66.616 318.828 64.744C318.636 64.552 318.468 64.456 318.324 64.456C318.18 64.456 318.036 64.624 317.892 64.96L316.74 68.344C316.404 69.448 315.78 70 314.868 70H308.604ZM321.06 56.68C321.06 58.456 321.516 59.848 322.428 60.856C323.388 61.816 324.636 62.296 326.172 62.296C328.092 62.296 329.508 61.432 330.42 59.704C331.38 57.928 331.86 55 331.86 50.92C331.86 46.888 331.404 44.056 330.492 42.424C329.58 40.744 328.212 39.904 326.388 39.904C324.372 39.904 322.596 40.864 321.06 42.784V56.68ZM349.299 70C348.627 70 348.147 69.88 347.859 69.64C347.571 69.352 347.427 68.872 347.427 68.2V33.496C347.427 32.968 347.547 32.56 347.787 32.272C348.027 31.984 348.363 31.84 348.795 31.84H360.387C361.251 31.84 361.683 32.32 361.683 33.28V36.52C361.683 36.904 361.803 37.096 362.043 37.096C362.235 37.096 362.427 37 362.619 36.808C364.203 35.032 365.979 33.64 367.947 32.632C369.915 31.624 371.955 31.12 374.067 31.12C377.427 31.12 380.139 32.176 382.203 34.288C384.315 36.4 385.371 39.232 385.371 42.784V67.84C385.371 69.28 384.651 70 383.211 70H372.627C372.003 70 371.571 69.88 371.331 69.64C371.091 69.352 370.971 68.872 370.971 68.2V44.728C370.971 43.672 370.611 42.832 369.891 42.208C369.219 41.584 368.307 41.272 367.155 41.272C364.947 41.272 363.171 42.472 361.827 44.872V67.912C361.827 68.68 361.635 69.232 361.251 69.568C360.915 69.856 360.315 70 359.451 70H349.299ZM389.224 70C388.504 70 388 69.856 387.712 69.568C387.424 69.28 387.28 68.824 387.28 68.2V18.232C387.28 17.704 387.4 17.296 387.64 17.008C387.88 16.72 388.216 16.576 388.648 16.576H400.384C401.248 16.576 401.68 17.08 401.68 18.088V34.288C401.68 34.912 401.872 35.224 402.256 35.224C402.448 35.224 402.712 35.104 403.048 34.864C404.44 33.52 405.88 32.56 407.368 31.984C408.856 31.408 410.464 31.12 412.192 31.12C416.848 31.12 420.472 32.872 423.064 36.376C425.704 39.832 427.024 44.584 427.024 50.632C427.024 56.824 425.584 61.72 422.704 65.32C419.872 68.92 415.864 70.72 410.68 70.72C408.472 70.72 406.408 70.192 404.488 69.136C402.568 68.08 400.888 66.616 399.448 64.744C399.256 64.552 399.088 64.456 398.944 64.456C398.8 64.456 398.656 64.624 398.512 64.96L397.36 68.344C397.024 69.448 396.4 70 395.488 70H389.224ZM401.68 56.68C401.68 58.456 402.136 59.848 403.048 60.856C404.008 61.816 405.256 62.296 406.792 62.296C408.712 62.296 410.128 61.432 411.04 59.704C412 57.928 412.48 55 412.48 50.92C412.48 46.888 412.024 44.056 411.112 42.424C410.2 40.744 408.832 39.904 407.008 39.904C404.992 39.904 403.216 40.864 401.68 42.784V56.68Z" transform="translate(-2 -15)" fill="white"/>
</svg>
